<svg width="27" height="23" viewBox="0 0 27 23" fill="none" xmlns="http://www.w3.org/2000/svg">
<path d="M23.6997 2.72792H3.4623V20.4357L15.2156 8.68088C15.7095 8.18691 16.5103 8.18686 17.0043 8.68078L23.6997 15.3895V2.72792ZM0.932617 1.45473C0.932617 0.760792 1.50851 0.198242 2.18709 0.198242H24.9749C25.6678 0.198242 26.2294 0.761033 26.2294 1.45473V21.7089C26.2294 22.4028 25.6535 22.9654 24.9749 22.9654H2.18709C1.49427 22.9654 0.932617 22.4026 0.932617 21.7089V1.45473ZM8.52166 10.317C7.12455 10.317 5.99198 9.18442 5.99198 7.78728C5.99198 6.39018 7.12455 5.2576 8.52166 5.2576C9.91876 5.2576 11.0513 6.39018 11.0513 7.78728C11.0513 9.18442 9.91876 10.317 8.52166 10.317Z" fill="#537FE7"/>
</svg>
