<svg width="17" height="18" viewBox="0 0 17 18" fill="none" xmlns="http://www.w3.org/2000/svg">
<path d="M15.3 11.1312C13.8737 11.1312 12.5384 11.5222 11.396 12.2014C12.4132 13.3902 13.2027 14.7563 13.7249 16.2312H15.3V11.1312ZM11.9034 16.2312C10.2374 12.2379 6.2968 9.43123 1.7 9.43123V16.2312H11.9034ZM1.7 7.73123C4.9555 7.73123 7.92455 8.95098 10.1779 10.9578C11.6993 9.9591 13.4801 9.42834 15.3 9.43123V2.63123H16.1568C16.6226 2.63123 17 3.00948 17 3.47528V17.0872C16.9984 17.3104 16.9091 17.5241 16.7514 17.682C16.5936 17.8399 16.38 17.9294 16.1568 17.9312H0.8432C0.619491 17.931 0.405022 17.842 0.246916 17.6837C0.0888097 17.5254 -1.13437e-07 17.3109 0 17.0872V3.47528C0.00155554 3.25205 0.0908652 3.03839 0.248636 2.88046C0.406407 2.72253 0.619973 2.63301 0.8432 2.63123H3.4V0.931229H5.1V4.33123H1.7V7.73123ZM13.6 0.931229V4.33123H6.8V2.63123H11.9V0.931229H13.6ZM12.325 8.58123C11.9868 8.58123 11.6625 8.4469 11.4234 8.20779C11.1843 7.96868 11.05 7.64438 11.05 7.30623C11.05 6.96808 11.1843 6.64378 11.4234 6.40467C11.6625 6.16556 11.9868 6.03123 12.325 6.03123C12.6632 6.03123 12.9875 6.16556 13.2266 6.40467C13.4657 6.64378 13.6 6.96808 13.6 7.30623C13.6 7.64438 13.4657 7.96868 13.2266 8.20779C12.9875 8.4469 12.6632 8.58123 12.325 8.58123Z" fill="#5E5E5E"/>
</svg>
