<svg width="16" height="19" viewBox="0 0 16 19" fill="none" xmlns="http://www.w3.org/2000/svg">
<path d="M8 2.56255C7.35102 2.56255 6.72862 2.82036 6.26972 3.27925C5.81082 3.73815 5.55302 4.36055 5.55302 5.00953V9.90349C5.55302 10.5525 5.81082 11.1749 6.26972 11.6338C6.72862 12.0927 7.35102 12.3505 8 12.3505C8.64898 12.3505 9.27138 12.0927 9.73028 11.6338C10.1892 11.1749 10.447 10.5525 10.447 9.90349V5.00953C10.447 4.36055 10.1892 3.73815 9.73028 3.27925C9.27138 2.82036 8.64898 2.56255 8 2.56255ZM8 0.931229C8.53557 0.931229 9.0659 1.03672 9.5607 1.24167C10.0555 1.44662 10.5051 1.74703 10.8838 2.12574C11.2625 2.50444 11.5629 2.95403 11.7679 3.44883C11.9728 3.94364 12.0783 4.47396 12.0783 5.00953V9.90349C12.0783 10.9851 11.6486 12.0225 10.8838 12.7873C10.119 13.5521 9.08163 13.9818 8 13.9818C6.91837 13.9818 5.88103 13.5521 5.1162 12.7873C4.35137 12.0225 3.9217 10.9851 3.9217 9.90349V5.00953C3.9217 3.9279 4.35137 2.89057 5.1162 2.12574C5.88103 1.36091 6.91837 0.931229 8 0.931229V0.931229ZM0 11.5038L1.60033 11.1833C1.89755 12.6616 2.69741 13.9915 3.86404 14.9469C5.03066 15.9023 6.49208 16.4243 8 16.4243C9.50792 16.4243 10.9693 15.9023 12.136 14.9469C13.3026 13.9915 14.1025 12.6616 14.3997 11.1833L16 11.5038C15.2561 15.242 11.956 18.0601 8 18.0601C4.04405 18.0601 0.743883 15.242 0 11.5038Z" fill="#5E5E5E"/>
</svg>
