<svg width="21" height="16" viewBox="0 0 21 16" fill="none" xmlns="http://www.w3.org/2000/svg">
<path d="M14.3182 0.931229C14.5713 0.931229 14.8141 1.03 14.9931 1.20582C15.1722 1.38163 15.2727 1.62009 15.2727 1.86873V5.80623L20.2488 2.38435C20.3203 2.33509 20.4043 2.30607 20.4915 2.30045C20.5787 2.29483 20.6657 2.31282 20.7432 2.35247C20.8207 2.39212 20.8857 2.45191 20.9309 2.52531C20.9762 2.59871 21.0001 2.68291 21 2.76873V14.0937C21.0001 14.1795 20.9762 14.2637 20.9309 14.3371C20.8857 14.4105 20.8207 14.4703 20.7432 14.51C20.6657 14.5496 20.5787 14.5676 20.4915 14.562C20.4043 14.5564 20.3203 14.5274 20.2488 14.4781L15.2727 11.0562V14.9937C15.2727 15.2424 15.1722 15.4808 14.9931 15.6566C14.8141 15.8325 14.5713 15.9312 14.3182 15.9312H0.954545C0.701384 15.9312 0.458592 15.8325 0.27958 15.6566C0.100568 15.4808 0 15.2424 0 14.9937V1.86873C0 1.62009 0.100568 1.38163 0.27958 1.20582C0.458592 1.03 0.701384 0.931229 0.954545 0.931229H14.3182ZM13.3636 2.80623H1.90909V14.0562H13.3636V2.80623ZM6.10909 5.45842C6.18174 5.45822 6.25293 5.47839 6.31432 5.51654L10.4714 8.11529C10.5254 8.1492 10.5698 8.19592 10.6006 8.25113C10.6314 8.30634 10.6475 8.36828 10.6475 8.43123C10.6475 8.49418 10.6314 8.55611 10.6006 8.61133C10.5698 8.66654 10.5254 8.71326 10.4714 8.74717L6.31432 11.3469C6.25642 11.3831 6.18964 11.4033 6.12101 11.4055C6.05238 11.4076 5.98444 11.3914 5.92435 11.3588C5.86426 11.3262 5.81423 11.2783 5.77955 11.2201C5.74487 11.1618 5.72681 11.0955 5.72727 11.0281V5.83435C5.72727 5.62717 5.89909 5.45935 6.10909 5.45935V5.45842ZM19.0909 5.46873L15.2727 8.09373V8.76685L19.0909 11.3919V5.46873Z" fill="#5E5E5E"/>
</svg>
