<svg width="14" height="14" viewBox="0 0 14 14" fill="none" xmlns="http://www.w3.org/2000/svg">
<path d="M7.05242 4.68271C6.54303 4.68271 6.05451 4.88526 5.69432 5.24581C5.33413 5.60635 5.13177 6.09536 5.13177 6.60525C5.13177 7.11514 5.33413 7.60415 5.69432 7.96469C6.05451 8.32524 6.54303 8.52779 7.05242 8.52779C7.5618 8.52779 8.05033 8.32524 8.41052 7.96469C8.77071 7.60415 8.97306 7.11514 8.97306 6.60525C8.97306 6.09536 8.77071 5.60635 8.41052 5.24581C8.05033 4.88526 7.5618 4.68271 7.05242 4.68271ZM7.05242 3.40101C7.9014 3.40101 8.7156 3.7386 9.31592 4.33951C9.91624 4.94042 10.2535 5.75543 10.2535 6.60525C10.2535 7.45507 9.91624 8.27008 9.31592 8.87099C8.7156 9.4719 7.9014 9.80949 7.05242 9.80949C6.20344 9.80949 5.38923 9.4719 4.78892 8.87099C4.1886 8.27008 3.85134 7.45507 3.85134 6.60525C3.85134 5.75543 4.1886 4.94042 4.78892 4.33951C5.38923 3.7386 6.20344 3.40101 7.05242 3.40101ZM11.2138 3.2408C11.2138 3.45326 11.1295 3.65701 10.9794 3.80724C10.8293 3.95746 10.6258 4.04186 10.4135 4.04186C10.2013 4.04186 9.99775 3.95746 9.84767 3.80724C9.69759 3.65701 9.61328 3.45326 9.61328 3.2408C9.61328 3.02835 9.69759 2.8246 9.84767 2.67437C9.99775 2.52414 10.2013 2.43974 10.4135 2.43974C10.6258 2.43974 10.8293 2.52414 10.9794 2.67437C11.1295 2.8246 11.2138 3.02835 11.2138 3.2408ZM7.05242 1.47847C5.46853 1.47847 5.20988 1.48296 4.47299 1.51564C3.97106 1.53935 3.63431 1.60664 3.32189 1.7284C3.04403 1.83606 2.84364 1.96488 2.63045 2.17892C2.43007 2.37271 2.276 2.6093 2.17974 2.87103C2.0581 3.18505 1.99088 3.52149 1.96783 4.02328C1.93454 4.73077 1.9307 4.97814 1.9307 6.60525C1.9307 8.19071 1.93518 8.44961 1.96783 9.18722C1.99152 9.68901 2.05874 10.0267 2.17974 10.3388C2.28858 10.6176 2.41662 10.8182 2.62917 11.0309C2.84493 11.2463 3.04531 11.3751 3.32061 11.4815C3.63687 11.6039 3.97362 11.6718 4.47299 11.6949C5.17979 11.7282 5.42691 11.732 7.05242 11.732C8.63631 11.732 8.89496 11.7275 9.63184 11.6949C10.1325 11.6711 10.4699 11.6039 10.7823 11.4827C11.0595 11.3744 11.2612 11.2456 11.4737 11.0329C11.6895 10.8169 11.8182 10.6163 11.9245 10.3407C12.0461 10.0248 12.114 9.68709 12.137 9.18722C12.1703 8.47973 12.1741 8.23236 12.1741 6.60525C12.1741 5.01979 12.1697 4.76089 12.137 4.02328C12.1133 3.52213 12.0461 3.18377 11.9245 2.87103C11.828 2.60957 11.6742 2.37307 11.4744 2.17892C11.2809 1.97823 11.0445 1.824 10.7829 1.72776C10.4692 1.606 10.1325 1.53871 9.63184 1.51564C8.92505 1.48232 8.67792 1.47847 7.05242 1.47847ZM7.05242 0.196777C8.79188 0.196777 9.00891 0.203186 9.69138 0.235228C10.3732 0.267271 10.8374 0.374292 11.2458 0.533222C11.6684 0.695997 12.0243 0.916449 12.3803 1.27212C12.7058 1.59248 12.9577 1.97999 13.1185 2.4077C13.2766 2.81592 13.3841 3.28118 13.4162 3.96368C13.4462 4.64682 13.4546 4.86407 13.4546 6.60525C13.4546 8.34643 13.4482 8.56368 13.4162 9.24682C13.3841 9.92933 13.2766 10.3939 13.1185 10.8028C12.9582 11.2307 12.7062 11.6184 12.3803 11.9384C12.0602 12.2641 11.673 12.5163 11.2458 12.6773C10.838 12.8356 10.3732 12.9432 9.69138 12.9753C9.00891 13.0054 8.79188 13.0137 7.05242 13.0137C5.31295 13.0137 5.09592 13.0073 4.41345 12.9753C3.73162 12.9432 3.26747 12.8356 2.85901 12.6773C2.43156 12.5167 2.04435 12.2645 1.72455 11.9384C1.39894 11.6181 1.14703 11.2305 0.986381 10.8028C0.827608 10.3946 0.720692 9.92933 0.688681 9.24682C0.658591 8.56368 0.650269 8.34643 0.650269 6.60525C0.650269 4.86407 0.656671 4.64682 0.688681 3.96368C0.720692 3.28053 0.827608 2.81656 0.986381 2.4077C1.14659 1.97973 1.39855 1.59211 1.72455 1.27212C2.04445 0.946076 2.43162 0.693901 2.85901 0.533222C3.26747 0.374292 3.73098 0.267271 4.41345 0.235228C5.09592 0.205108 5.31295 0.196777 7.05242 0.196777Z" fill="white"/>
</svg>
