<svg width="17" height="14" viewBox="0 0 17 14" fill="none" xmlns="http://www.w3.org/2000/svg">
<path d="M11.2745 1.73624C10.6897 1.73615 10.1282 1.96586 9.71086 2.37596C9.29354 2.78606 9.05373 3.34376 9.04304 3.92905L9.0215 5.14213C9.02024 5.20727 9.00523 5.2714 8.97747 5.33032C8.94971 5.38924 8.90982 5.44162 8.86041 5.48402C8.811 5.52642 8.7532 5.55788 8.69079 5.57635C8.62837 5.59482 8.56277 5.59987 8.49827 5.59117L7.29715 5.42788C5.71669 5.21222 4.20241 4.4836 2.74967 3.27205C2.28954 5.82146 3.18826 7.58757 5.35274 8.95008L6.69698 9.79577C6.76085 9.83595 6.81391 9.89118 6.85152 9.95664C6.88913 10.0221 6.91015 10.0958 6.91273 10.1712C6.91531 10.2467 6.89938 10.3217 6.86633 10.3895C6.83328 10.4574 6.78411 10.5161 6.72314 10.5606L5.49817 11.4564C6.22684 11.5018 6.91858 11.4694 7.49259 11.3555C11.1229 10.6299 13.5367 7.89565 13.5367 3.38527C13.5367 3.01711 12.758 1.73624 11.2745 1.73624ZM7.50414 3.90055C7.51757 3.1581 7.74951 2.43612 8.17091 1.82499C8.59232 1.21386 9.18447 0.740757 9.87322 0.464903C10.562 0.189048 11.3167 0.122706 12.043 0.274182C12.7692 0.425659 13.4347 0.788222 13.956 1.31648C14.5031 1.31263 14.9686 1.45127 16.0097 0.819689C15.7519 2.08284 15.625 2.63123 15.0756 3.38527C15.0756 9.27126 11.4614 12.1334 7.79422 12.8658C5.27964 13.368 1.62319 12.5431 0.575195 11.4479C1.1092 11.4063 3.27906 11.1729 4.53327 10.254C3.47219 9.55392 -0.751345 7.06613 2.02408 0.377586C3.32677 1.9003 4.64792 2.93701 5.98677 3.48694C6.8778 3.85279 7.09632 3.84509 7.50491 3.90132L7.50414 3.90055Z" fill="white"/>
</svg>
