<svg width="14" height="14" viewBox="0 0 14 14" fill="none" xmlns="http://www.w3.org/2000/svg">
<path d="M6.95126 4.62843C7.622 3.94237 8.49537 3.49355 9.51136 3.49355C10.5783 3.49355 11.6016 3.91782 12.3561 4.67303C13.1105 5.42824 13.5344 6.45252 13.5344 7.52054V13.0119H12.0715V7.52054C12.0715 6.84089 11.8017 6.18908 11.3216 5.70849C10.8415 5.2279 10.1903 4.95791 9.51136 4.95791C8.83238 4.95791 8.18121 5.2279 7.70109 5.70849C7.22098 6.18908 6.95126 6.84089 6.95126 7.52054V13.0119H5.48834V3.85964H6.95126V4.62843ZM1.83104 2.39527C1.54005 2.39527 1.26098 2.27956 1.05522 2.0736C0.849453 1.86763 0.733856 1.58828 0.733856 1.297C0.733856 1.00572 0.849453 0.726373 1.05522 0.520407C1.26098 0.314441 1.54005 0.19873 1.83104 0.19873C2.12204 0.19873 2.40111 0.314441 2.60687 0.520407C2.81264 0.726373 2.92823 1.00572 2.92823 1.297C2.92823 1.58828 2.81264 1.86763 2.60687 2.0736C2.40111 2.27956 2.12204 2.39527 1.83104 2.39527ZM1.09959 3.85964H2.5625V13.0119H1.09959V3.85964Z" fill="white"/>
</svg>
