<svg width="16" height="13" viewBox="0 0 16 13" fill="none" xmlns="http://www.w3.org/2000/svg">
<path d="M13.647 2.86701C13.5903 2.64447 13.4292 2.47644 13.2449 2.42491C12.9189 2.33305 11.3298 2.12395 7.97253 2.12395C4.61529 2.12395 3.02769 2.33305 2.69868 2.42491C2.51664 2.47569 2.35549 2.64372 2.29805 2.86701C2.21673 3.18365 2.0041 4.5107 2.0041 6.6047C2.0041 8.6987 2.21673 10.025 2.29805 10.3431C2.35475 10.5649 2.51589 10.733 2.69942 10.7837C3.02769 10.8763 4.61529 11.0854 7.97253 11.0854C11.3298 11.0854 12.9181 10.8763 13.2464 10.7845C13.4284 10.7337 13.5896 10.5657 13.647 10.3424C13.7283 10.0257 13.941 8.69571 13.941 6.6047C13.941 4.51368 13.7283 3.1844 13.647 2.86701ZM15.0921 2.49585C15.4331 3.82664 15.4331 6.6047 15.4331 6.6047C15.4331 6.6047 15.4331 9.38276 15.0921 10.7135C14.9026 11.4491 14.3483 12.0279 13.6463 12.2236C12.3713 12.579 7.97253 12.579 7.97253 12.579C7.97253 12.579 3.57604 12.579 2.29879 12.2236C1.59377 12.0249 1.0402 11.4469 0.85294 10.7135C0.511993 9.38276 0.511993 6.6047 0.511993 6.6047C0.511993 6.6047 0.511993 3.82664 0.85294 2.49585C1.04244 1.76027 1.59676 1.1815 2.29879 0.985843C3.57604 0.630371 7.97253 0.630371 7.97253 0.630371C7.97253 0.630371 12.3713 0.630371 13.6463 0.985843C14.3513 1.18449 14.9049 1.76251 15.0921 2.49585ZM6.48042 9.21846V3.99093L10.9567 6.6047L6.48042 9.21846Z" fill="white"/>
</svg>
