<svg width="8" height="14" viewBox="0 0 8 14" fill="none" xmlns="http://www.w3.org/2000/svg">
<path opacity="0.8" d="M4.74521 5.18187H7.94299L7.58768 6.60451H4.74521V13.0064H3.32398V6.60451H0.481506V5.18187H3.32398V3.85028C3.32398 2.582 3.45615 2.12178 3.70344 1.658C3.94577 1.19977 4.32012 0.825048 4.7779 0.582481C5.24122 0.334942 5.70099 0.202637 6.96802 0.202637C7.33896 0.202637 7.66443 0.238203 7.94299 0.309335V1.62528H6.96802C6.02716 1.62528 5.74078 1.68076 5.44872 1.83725C5.23269 1.95248 5.07209 2.11324 4.95697 2.32948C4.80064 2.62183 4.74521 2.90849 4.74521 3.85028V5.18187Z" fill="white"/>
</svg>
