<svg width="18" height="20" viewBox="0 0 18 20" fill="none" xmlns="http://www.w3.org/2000/svg">
<path d="M0.949986 0.589355L10.5561 10.0894L0.950929 19.5894C0.780128 19.5184 0.63437 19.399 0.531982 19.2464C0.429594 19.0937 0.375148 18.9145 0.37549 18.7313V1.4474C0.375562 1.26443 0.430067 1.08552 0.532218 0.932956C0.634369 0.780388 0.779655 0.660895 0.949986 0.589355ZM11.223 10.7487L13.3946 12.8957L3.07722 18.8022L11.223 10.7487ZM14.2407 7.76612L16.8887 9.28261C17.0317 9.3646 17.1503 9.48227 17.2328 9.62386C17.3153 9.76544 17.3587 9.92596 17.3587 10.0894C17.3587 10.2527 17.3153 10.4133 17.2328 10.5549C17.1503 10.6964 17.0317 10.8141 16.8887 10.8961L14.2398 12.4126L11.8899 10.0894L14.2407 7.76612ZM3.07722 1.37651L13.3955 7.28207L11.223 9.42997L3.07722 1.37651Z" fill="white"/>
</svg>
