<svg width="18" height="22" viewBox="0 0 18 22" fill="none" xmlns="http://www.w3.org/2000/svg">
<path d="M16.4877 7.75092C16.3667 7.84543 14.2305 9.05726 14.2305 11.7518C14.2305 14.8685 16.9487 15.9711 17.0301 15.9984C17.0176 16.0657 16.5983 17.5085 15.5969 18.9786C14.7041 20.2724 13.7716 21.564 12.353 21.564C10.9344 21.564 10.5693 20.7344 8.93172 20.7344C7.33583 20.7344 6.7684 21.5913 5.47083 21.5913C4.17325 21.5913 3.26787 20.3942 2.22689 18.924C1.0211 17.1977 0.046875 14.5157 0.046875 11.9702C0.046875 7.88744 2.68375 5.72212 5.2789 5.72212C6.65784 5.72212 7.8073 6.63361 8.67304 6.63361C9.49707 6.63361 10.7821 5.66752 12.3509 5.66752C12.9454 5.66752 15.0817 5.72212 16.4877 7.75092ZM11.6061 3.93904C12.2549 3.16407 12.7139 2.08876 12.7139 1.01345C12.7139 0.864336 12.7014 0.713121 12.6742 0.591309C11.6187 0.631213 10.3628 1.29908 9.60555 2.18327C9.011 2.86374 8.45609 3.93904 8.45609 5.02905C8.45609 5.19287 8.48321 5.35668 8.49572 5.40919C8.56248 5.42179 8.67096 5.43649 8.77944 5.43649C9.72654 5.43649 10.9177 4.79803 11.6061 3.93904Z" fill="#181823"/>
</svg>
